<svg height="512pt" viewBox="0 0 512.00025 512" width="512pt" xmlns="http://www.w3.org/2000/svg"><path d="m495.871094 152.097656-135.992188-135.988281c-10.386718-10.390625-24.238281-16.109375-39.003906-16.109375-14.769531 0-28.621094 5.722656-39.007812 16.109375l-232.386719 232.386719c-21.507813 21.507812-21.507813 56.503906 0 78.011718l11.949219 11.945313-57.035157 57.035156c-5.859375 5.859375-5.859375 15.355469 0 21.214844 2.925781 2.929687 6.765625 4.390625 10.605469 4.390625s7.675781-1.460938 10.605469-4.390625l57.035156-57.039063 24.226563 24.230469-102.472657 102.480469c-5.859375 5.855469-5.859375 15.355469 0 21.210938 2.925781 2.929687 6.765625 4.390624 10.605469 4.390624s7.675781-1.460937 10.605469-4.390624l102.472656-102.476563 24.234375 24.226563-57.035156 57.039062c-5.859375 5.855469-5.859375 15.351562 0 21.210938 2.929687 2.929687 6.765625 4.394531 10.605468 4.394531 3.839844 0 7.675782-1.464844 10.605469-4.394531l57.035157-57.035157 11.945312 11.949219c10.390625 10.386719 24.242188 16.105469 39.007812 16.105469 14.765626 0 28.617188-5.71875 39.007813-16.109375l232.386719-232.382813c21.507812-21.507812 21.507812-56.507812 0-78.015625zm-199.421875-108.144531-36.523438 182.601563-182.605469 36.523437zm178.207031 164.945313-232.382812 232.386718c-4.722657 4.722656-11.042969 7.320313-17.796876 7.320313-6.753906 0-13.070312-2.597657-17.796874-7.320313l-67.988282-67.992187s-.003906 0-.003906-.003907c-.003906-.003906-.003906-.003906-.007812-.003906l-45.429688-45.433594c-.003906 0-.003906 0-.003906-.003906-.003906 0-.003906-.003906-.003906-.003906l-22.546876-22.546875c-2.671874-2.671875-4.609374-5.800781-5.828124-9.136719l210.75-42.148437c5.9375-1.1875 10.578124-5.828125 11.765624-11.765625l42.148438-210.742188c3.402344 1.234375 6.515625 3.195313 9.136719 5.816406l135.988281 135.992188c9.8125 9.808594 9.8125 25.773438 0 35.585938zm0 0"/></svg>