<svg xmlns="http://www.w3.org/2000/svg" width="24" height="24"><path d="M7.653 21.126C7.293 21.653 6.687 22 6 22H4a2 2 0 0 1-2-2v-9a2 2 0 0 1 2-2h2a2 2 0 0 1 .57.083c1.074-1.565 4.685-5.509 5.65-6.71l.3-.374H13c.615 0 1.142.046 1.748.223C16.092 2.612 17 3.527 17 4.999c0 .52-.092 1.075-.262 1.69-.112.407-.25.819-.44 1.329l-.343.905-.028.076H19c1.87 0 3 1.318 3 3 0 5.944-1.245 10-4 10h-6.966a6.741 6.741 0 0 1-2.37-.382 4.885 4.885 0 0 1-1.01-.491zM8 17.999c0 .902.452 1.419 1.337 1.735a4.81 4.81 0 0 0 1.626.266H18c1.015 0 2-3.21 2-8 0-.641-.309-1-1-1h-4c-1.195 0-1.444-.925-1.195-1.925.058-.235.144-.494.274-.845.057-.154.29-.765.344-.91.171-.46.293-.821.387-1.162.126-.457.19-.842.19-1.159 0-.45-.238-.69-.81-.857a3.501 3.501 0 0 0-.73-.128c-1.546 1.848-5.053 5.687-5.318 6.305-.098.227-.142.44-.142.68v7zM4 11v9h2v-9H4z"/></svg>